# xmcd CD database file generated by Grip 3.0.7
# 
# Track frame offsets:
#       150
#       30675
#       52888
#       86670
#       128898
#       161463
#       199038
#       229840
# 
# Disc length: 3167 seconds
# 
# Revision: 1
# Processed by: cddbd v1.5.1PL0 Copyright (c) Steve Scherf et al.
# Submitted via: Grip 3.0.7
# 
DISCID=5f0c5d08
DTITLE=Wayne Krantz - 2 Drink Minimum
DYEAR=1995
DGENRE=Blues
TTITLE0=Whippersnapper
TTITLE1=Dove Gloria
TTITLE2=Shirts Off
TTITLE3=Dream Called Love
TTITLE4=AFKaP
TTITLE5=Isabelle
TTITLE6=Alliance/Secrets
TTITLE7=Lynxpaw
EXTD=
EXTT0=
EXTT1=
EXTT2=
EXTT3=
EXTT4=
EXTT5=
EXTT6=
EXTT7=
PLAYORDER=
